<?xml version="1.0" encoding="utf-8"?>
<!-- Svg Vector Icons : http://www.onlinewebfonts.com/icon -->
<!DOCTYPE svg PUBLIC "-//W3C//DTD SVG 1.1//EN" "http://www.w3.org/Graphics/SVG/1.1/DTD/svg11.dtd">
<svg version="1.1" xmlns="http://www.w3.org/2000/svg" xmlns:xlink="http://www.w3.org/1999/xlink" x="0px" y="0px" viewBox="0 0 1000 1000" enable-background="new 0 0 1000 1000" xml:space="preserve">
<metadata> Svg Vector Icons : http://www.onlinewebfonts.com/icon </metadata>
<g><g><path d="M10,500c0,194,112.7,361.6,276.2,441.1L52.4,300.6C25.3,361.5,10,428.9,10,500z M830.9,475.2c0-60.6-21.7-102.5-40.4-135.1c-24.8-40.4-48.1-74.5-48.1-114.9c0-45,34.2-87,82.3-87c2.1,0,4.2,0.2,6.4,0.3C743.8,58.7,627.7,9.9,500.1,9.9c-171.2,0-321.8,87.9-409.5,220.9c11.5,0.3,99.3-3,99.3-3L378.3,801l107.3-321.6l-87.4-254.2h162L744.7,797l49-163.4C818.4,570,830.9,517.2,830.9,475.2z M508.6,542.9L361.6,970.1c44,12.9,90.3,20,138.5,20c57,0,111.8-9.9,162.7-27.7c-1.3-2.1-2.6-4.4-3.6-6.8L508.6,542.9z M930,264.9c2.2,15.6,3.3,32.3,3.3,50.4c0,49.7-9.3,105.6-37.3,175.5L746.4,923.6C892.1,838.6,990,680.8,990,500C990.1,414.8,968.3,334.7,930,264.9z"/></g><g></g><g></g><g></g><g></g><g></g><g></g><g></g><g></g><g></g><g></g><g></g><g></g><g></g><g></g><g></g></g>
</svg>